<mxfile host="app.diagrams.net" modified="2020-10-23T14:33:32.820Z" agent="5.0 (Windows NT 10.0; Win64; x64) AppleWebKit/537.36 (KHTML, like Gecko) Chrome/85.0.4183.121 Safari/537.36" etag="vxLzSKR1ysgVGl-WXt8S" version="13.8.1" type="github">
  <diagram id="nW3yu8sJXAvutyUkPIp9" name="Page-1">
    <mxGraphModel dx="1422" dy="794" grid="1" gridSize="10" guides="1" tooltips="1" connect="1" arrows="1" fold="1" page="1" pageScale="1" pageWidth="1169" pageHeight="827" math="0" shadow="0">
      <root>
        <mxCell id="0" />
        <mxCell id="1" parent="0" />
        <mxCell id="T1-t7WzNxzWoTqqxb-53-5" value="" style="whiteSpace=wrap;html=1;aspect=fixed;" vertex="1" parent="1">
          <mxGeometry x="25" y="170" width="555" height="555" as="geometry" />
        </mxCell>
        <mxCell id="T1-t7WzNxzWoTqqxb-53-1" value="Install Command&amp;nbsp;" style="text;html=1;strokeColor=none;fillColor=none;align=center;verticalAlign=middle;whiteSpace=wrap;rounded=0;" vertex="1" parent="1">
          <mxGeometry x="10" y="20" width="180" height="40" as="geometry" />
        </mxCell>
        <mxCell id="T1-t7WzNxzWoTqqxb-53-6" value="short CDSEDoc::Install(CModuleList *mlist, CNetNode *nn_ptr, WORD mode)" style="text;html=1;strokeColor=none;fillColor=none;align=center;verticalAlign=middle;whiteSpace=wrap;rounded=0;" vertex="1" parent="1">
          <mxGeometry x="10" y="180" width="460" height="10" as="geometry" />
        </mxCell>
        <mxCell id="T1-t7WzNxzWoTqqxb-53-56" style="edgeStyle=orthogonalEdgeStyle;rounded=0;orthogonalLoop=1;jettySize=auto;html=1;entryX=0.5;entryY=0;entryDx=0;entryDy=0;" edge="1" parent="1" source="T1-t7WzNxzWoTqqxb-53-48" target="T1-t7WzNxzWoTqqxb-53-55">
          <mxGeometry relative="1" as="geometry" />
        </mxCell>
        <mxCell id="T1-t7WzNxzWoTqqxb-53-48" value="Save Config" style="rounded=1;whiteSpace=wrap;html=1;" vertex="1" parent="1">
          <mxGeometry x="265" y="390" width="110" height="25" as="geometry" />
        </mxCell>
        <mxCell id="T1-t7WzNxzWoTqqxb-53-54" style="edgeStyle=orthogonalEdgeStyle;rounded=0;orthogonalLoop=1;jettySize=auto;html=1;entryX=0.5;entryY=0;entryDx=0;entryDy=0;" edge="1" parent="1" source="T1-t7WzNxzWoTqqxb-53-53" target="T1-t7WzNxzWoTqqxb-53-58">
          <mxGeometry relative="1" as="geometry">
            <mxPoint x="335" y="265" as="targetPoint" />
          </mxGeometry>
        </mxCell>
        <mxCell id="T1-t7WzNxzWoTqqxb-53-97" style="edgeStyle=orthogonalEdgeStyle;rounded=0;orthogonalLoop=1;jettySize=auto;html=1;" edge="1" parent="1" source="T1-t7WzNxzWoTqqxb-53-53" target="T1-t7WzNxzWoTqqxb-53-96">
          <mxGeometry relative="1" as="geometry" />
        </mxCell>
        <mxCell id="T1-t7WzNxzWoTqqxb-53-53" value="Is &lt;br&gt;Websocket&amp;nbsp;(AC15)&lt;br&gt;?" style="rhombus;whiteSpace=wrap;html=1;" vertex="1" parent="1">
          <mxGeometry x="60" y="210" width="140" height="80" as="geometry" />
        </mxCell>
        <mxCell id="T1-t7WzNxzWoTqqxb-53-91" style="edgeStyle=orthogonalEdgeStyle;rounded=0;orthogonalLoop=1;jettySize=auto;html=1;entryX=0;entryY=0.5;entryDx=0;entryDy=0;" edge="1" parent="1" source="T1-t7WzNxzWoTqqxb-53-55" target="T1-t7WzNxzWoTqqxb-53-90">
          <mxGeometry relative="1" as="geometry" />
        </mxCell>
        <mxCell id="T1-t7WzNxzWoTqqxb-53-94" style="edgeStyle=orthogonalEdgeStyle;rounded=0;orthogonalLoop=1;jettySize=auto;html=1;" edge="1" parent="1" source="T1-t7WzNxzWoTqqxb-53-55" target="T1-t7WzNxzWoTqqxb-53-93">
          <mxGeometry relative="1" as="geometry" />
        </mxCell>
        <mxCell id="T1-t7WzNxzWoTqqxb-53-55" value="IsRevised?" style="rhombus;whiteSpace=wrap;html=1;" vertex="1" parent="1">
          <mxGeometry x="280" y="450" width="80" height="80" as="geometry" />
        </mxCell>
        <mxCell id="T1-t7WzNxzWoTqqxb-53-57" value="" style="group" vertex="1" connectable="0" parent="1">
          <mxGeometry x="660" y="169" width="490" height="490" as="geometry" />
        </mxCell>
        <mxCell id="T1-t7WzNxzWoTqqxb-53-7" value="" style="whiteSpace=wrap;html=1;aspect=fixed;" vertex="1" parent="T1-t7WzNxzWoTqqxb-53-57">
          <mxGeometry width="490" height="490" as="geometry" />
        </mxCell>
        <mxCell id="T1-t7WzNxzWoTqqxb-53-8" value="short CDSEDoc::CELiteConnected(short ver_match)" style="text;html=1;strokeColor=none;fillColor=none;align=center;verticalAlign=middle;whiteSpace=wrap;rounded=0;" vertex="1" parent="T1-t7WzNxzWoTqqxb-53-57">
          <mxGeometry x="50" y="10" width="330" height="10" as="geometry" />
        </mxCell>
        <mxCell id="T1-t7WzNxzWoTqqxb-53-9" value="Stop SAM" style="rounded=1;whiteSpace=wrap;html=1;" vertex="1" parent="T1-t7WzNxzWoTqqxb-53-57">
          <mxGeometry x="220" y="40" width="110" height="30" as="geometry" />
        </mxCell>
        <mxCell id="T1-t7WzNxzWoTqqxb-53-11" value="Modbus (AC10)Open?" style="rhombus;whiteSpace=wrap;html=1;" vertex="1" parent="T1-t7WzNxzWoTqqxb-53-57">
          <mxGeometry x="220" y="80" width="115" height="80" as="geometry" />
        </mxCell>
        <mxCell id="T1-t7WzNxzWoTqqxb-53-12" value="EIBisync can open?" style="rhombus;whiteSpace=wrap;html=1;" vertex="1" parent="T1-t7WzNxzWoTqqxb-53-57">
          <mxGeometry x="226.25" y="210" width="102.5" height="96.5" as="geometry" />
        </mxCell>
        <mxCell id="T1-t7WzNxzWoTqqxb-53-22" value="" style="edgeStyle=orthogonalEdgeStyle;rounded=0;orthogonalLoop=1;jettySize=auto;html=1;" edge="1" parent="T1-t7WzNxzWoTqqxb-53-57" source="T1-t7WzNxzWoTqqxb-53-11" target="T1-t7WzNxzWoTqqxb-53-12">
          <mxGeometry relative="1" as="geometry" />
        </mxCell>
        <mxCell id="T1-t7WzNxzWoTqqxb-53-13" value="Restart SAM" style="rounded=1;whiteSpace=wrap;html=1;" vertex="1" parent="T1-t7WzNxzWoTqqxb-53-57">
          <mxGeometry x="80" y="150" width="110" height="30" as="geometry" />
        </mxCell>
        <mxCell id="T1-t7WzNxzWoTqqxb-53-14" value="Return error" style="rounded=1;whiteSpace=wrap;html=1;" vertex="1" parent="T1-t7WzNxzWoTqqxb-53-57">
          <mxGeometry x="76.25" y="300" width="110" height="30" as="geometry" />
        </mxCell>
        <mxCell id="T1-t7WzNxzWoTqqxb-53-29" value="" style="edgeStyle=orthogonalEdgeStyle;rounded=0;orthogonalLoop=1;jettySize=auto;html=1;entryX=0.5;entryY=0;entryDx=0;entryDy=0;" edge="1" parent="T1-t7WzNxzWoTqqxb-53-57" source="T1-t7WzNxzWoTqqxb-53-19" target="T1-t7WzNxzWoTqqxb-53-13">
          <mxGeometry relative="1" as="geometry" />
        </mxCell>
        <mxCell id="T1-t7WzNxzWoTqqxb-53-19" value="result = AC10?" style="rounded=1;whiteSpace=wrap;html=1;" vertex="1" parent="T1-t7WzNxzWoTqqxb-53-57">
          <mxGeometry x="80" y="105" width="110" height="30" as="geometry" />
        </mxCell>
        <mxCell id="T1-t7WzNxzWoTqqxb-53-20" value="" style="edgeStyle=orthogonalEdgeStyle;rounded=0;orthogonalLoop=1;jettySize=auto;html=1;" edge="1" parent="T1-t7WzNxzWoTqqxb-53-57" source="T1-t7WzNxzWoTqqxb-53-11" target="T1-t7WzNxzWoTqqxb-53-19">
          <mxGeometry relative="1" as="geometry" />
        </mxCell>
        <mxCell id="T1-t7WzNxzWoTqqxb-53-21" value="Return result" style="rounded=1;whiteSpace=wrap;html=1;" vertex="1" parent="T1-t7WzNxzWoTqqxb-53-57">
          <mxGeometry x="80" y="193.5" width="110" height="30" as="geometry" />
        </mxCell>
        <mxCell id="T1-t7WzNxzWoTqqxb-53-30" value="" style="edgeStyle=orthogonalEdgeStyle;rounded=0;orthogonalLoop=1;jettySize=auto;html=1;entryX=0.5;entryY=0;entryDx=0;entryDy=0;" edge="1" parent="T1-t7WzNxzWoTqqxb-53-57" source="T1-t7WzNxzWoTqqxb-53-13" target="T1-t7WzNxzWoTqqxb-53-21">
          <mxGeometry relative="1" as="geometry" />
        </mxCell>
        <mxCell id="T1-t7WzNxzWoTqqxb-53-23" value="y" style="text;html=1;strokeColor=none;fillColor=none;align=center;verticalAlign=middle;whiteSpace=wrap;rounded=0;" vertex="1" parent="T1-t7WzNxzWoTqqxb-53-57">
          <mxGeometry x="186.25" y="100" width="40" height="20" as="geometry" />
        </mxCell>
        <mxCell id="T1-t7WzNxzWoTqqxb-53-24" value="n" style="text;html=1;strokeColor=none;fillColor=none;align=center;verticalAlign=middle;whiteSpace=wrap;rounded=0;" vertex="1" parent="T1-t7WzNxzWoTqqxb-53-57">
          <mxGeometry x="250" y="160" width="40" height="20" as="geometry" />
        </mxCell>
        <mxCell id="T1-t7WzNxzWoTqqxb-53-32" value="" style="edgeStyle=orthogonalEdgeStyle;rounded=0;orthogonalLoop=1;jettySize=auto;html=1;" edge="1" parent="T1-t7WzNxzWoTqqxb-53-57" source="T1-t7WzNxzWoTqqxb-53-25" target="T1-t7WzNxzWoTqqxb-53-14">
          <mxGeometry relative="1" as="geometry" />
        </mxCell>
        <mxCell id="T1-t7WzNxzWoTqqxb-53-25" value="Restart SAM" style="rounded=1;whiteSpace=wrap;html=1;" vertex="1" parent="T1-t7WzNxzWoTqqxb-53-57">
          <mxGeometry x="76.25" y="243.25" width="110" height="30" as="geometry" />
        </mxCell>
        <mxCell id="T1-t7WzNxzWoTqqxb-53-26" value="" style="edgeStyle=orthogonalEdgeStyle;rounded=0;orthogonalLoop=1;jettySize=auto;html=1;" edge="1" parent="T1-t7WzNxzWoTqqxb-53-57" source="T1-t7WzNxzWoTqqxb-53-12" target="T1-t7WzNxzWoTqqxb-53-25">
          <mxGeometry relative="1" as="geometry" />
        </mxCell>
        <mxCell id="T1-t7WzNxzWoTqqxb-53-27" value="n" style="text;html=1;strokeColor=none;fillColor=none;align=center;verticalAlign=middle;whiteSpace=wrap;rounded=0;" vertex="1" parent="T1-t7WzNxzWoTqqxb-53-57">
          <mxGeometry x="190" y="235" width="40" height="20" as="geometry" />
        </mxCell>
        <mxCell id="T1-t7WzNxzWoTqqxb-53-34" value="Restart SAM" style="rounded=1;whiteSpace=wrap;html=1;" vertex="1" parent="T1-t7WzNxzWoTqqxb-53-57">
          <mxGeometry x="222.5" y="390" width="110" height="30" as="geometry" />
        </mxCell>
        <mxCell id="T1-t7WzNxzWoTqqxb-53-43" style="edgeStyle=orthogonalEdgeStyle;rounded=0;orthogonalLoop=1;jettySize=auto;html=1;" edge="1" parent="T1-t7WzNxzWoTqqxb-53-57" source="T1-t7WzNxzWoTqqxb-53-38" target="T1-t7WzNxzWoTqqxb-53-34">
          <mxGeometry relative="1" as="geometry" />
        </mxCell>
        <mxCell id="T1-t7WzNxzWoTqqxb-53-38" value="&lt;span&gt;result =Version check&amp;nbsp;&lt;/span&gt;&lt;br&gt;&lt;span&gt;ok?&lt;/span&gt;" style="rounded=1;whiteSpace=wrap;html=1;" vertex="1" parent="T1-t7WzNxzWoTqqxb-53-57">
          <mxGeometry x="209.5" y="330" width="136" height="40" as="geometry" />
        </mxCell>
        <mxCell id="T1-t7WzNxzWoTqqxb-53-40" style="edgeStyle=orthogonalEdgeStyle;rounded=0;orthogonalLoop=1;jettySize=auto;html=1;" edge="1" parent="T1-t7WzNxzWoTqqxb-53-57" source="T1-t7WzNxzWoTqqxb-53-12" target="T1-t7WzNxzWoTqqxb-53-38">
          <mxGeometry relative="1" as="geometry" />
        </mxCell>
        <mxCell id="T1-t7WzNxzWoTqqxb-53-41" value="Return result" style="rounded=1;whiteSpace=wrap;html=1;" vertex="1" parent="T1-t7WzNxzWoTqqxb-53-57">
          <mxGeometry x="222.5" y="440" width="110" height="30" as="geometry" />
        </mxCell>
        <mxCell id="T1-t7WzNxzWoTqqxb-53-44" style="edgeStyle=orthogonalEdgeStyle;rounded=0;orthogonalLoop=1;jettySize=auto;html=1;entryX=0.5;entryY=0;entryDx=0;entryDy=0;" edge="1" parent="T1-t7WzNxzWoTqqxb-53-57" source="T1-t7WzNxzWoTqqxb-53-34" target="T1-t7WzNxzWoTqqxb-53-41">
          <mxGeometry relative="1" as="geometry" />
        </mxCell>
        <mxCell id="T1-t7WzNxzWoTqqxb-53-59" style="edgeStyle=orthogonalEdgeStyle;rounded=0;orthogonalLoop=1;jettySize=auto;html=1;" edge="1" parent="1" source="T1-t7WzNxzWoTqqxb-53-58" target="T1-t7WzNxzWoTqqxb-53-48">
          <mxGeometry relative="1" as="geometry" />
        </mxCell>
        <mxCell id="T1-t7WzNxzWoTqqxb-53-87" style="edgeStyle=orthogonalEdgeStyle;rounded=0;orthogonalLoop=1;jettySize=auto;html=1;entryX=0;entryY=0.5;entryDx=0;entryDy=0;" edge="1" parent="1" source="T1-t7WzNxzWoTqqxb-53-58" target="T1-t7WzNxzWoTqqxb-53-86">
          <mxGeometry relative="1" as="geometry" />
        </mxCell>
        <mxCell id="T1-t7WzNxzWoTqqxb-53-58" value="CELiteConnected()&lt;br&gt;IsConnected?" style="rhombus;whiteSpace=wrap;html=1;" vertex="1" parent="1">
          <mxGeometry x="250" y="270" width="140" height="100" as="geometry" />
        </mxCell>
        <mxCell id="T1-t7WzNxzWoTqqxb-53-86" value="Return error" style="rounded=1;whiteSpace=wrap;html=1;" vertex="1" parent="1">
          <mxGeometry x="430" y="305" width="110" height="30" as="geometry" />
        </mxCell>
        <mxCell id="T1-t7WzNxzWoTqqxb-53-88" value="n" style="text;html=1;strokeColor=none;fillColor=none;align=center;verticalAlign=middle;whiteSpace=wrap;rounded=0;" vertex="1" parent="1">
          <mxGeometry x="390" y="300" width="40" height="20" as="geometry" />
        </mxCell>
        <mxCell id="T1-t7WzNxzWoTqqxb-53-89" value="y" style="text;html=1;strokeColor=none;fillColor=none;align=center;verticalAlign=middle;whiteSpace=wrap;rounded=0;" vertex="1" parent="1">
          <mxGeometry x="320" y="370" width="40" height="20" as="geometry" />
        </mxCell>
        <mxCell id="T1-t7WzNxzWoTqqxb-53-90" value="Return" style="rounded=1;whiteSpace=wrap;html=1;" vertex="1" parent="1">
          <mxGeometry x="430" y="475" width="110" height="30" as="geometry" />
        </mxCell>
        <mxCell id="T1-t7WzNxzWoTqqxb-53-92" value="n" style="text;html=1;strokeColor=none;fillColor=none;align=center;verticalAlign=middle;whiteSpace=wrap;rounded=0;" vertex="1" parent="1">
          <mxGeometry x="375" y="470" width="40" height="20" as="geometry" />
        </mxCell>
        <mxCell id="T1-t7WzNxzWoTqqxb-53-100" style="edgeStyle=orthogonalEdgeStyle;rounded=0;orthogonalLoop=1;jettySize=auto;html=1;entryX=0.5;entryY=0;entryDx=0;entryDy=0;" edge="1" parent="1" source="T1-t7WzNxzWoTqqxb-53-93" target="T1-t7WzNxzWoTqqxb-53-99">
          <mxGeometry relative="1" as="geometry" />
        </mxCell>
        <mxCell id="T1-t7WzNxzWoTqqxb-53-93" value="Install Tags" style="rounded=1;whiteSpace=wrap;html=1;" vertex="1" parent="1">
          <mxGeometry x="265" y="570" width="110" height="25" as="geometry" />
        </mxCell>
        <mxCell id="T1-t7WzNxzWoTqqxb-53-95" value="y" style="text;html=1;strokeColor=none;fillColor=none;align=center;verticalAlign=middle;whiteSpace=wrap;rounded=0;" vertex="1" parent="1">
          <mxGeometry x="320" y="540" width="40" height="20" as="geometry" />
        </mxCell>
        <mxCell id="T1-t7WzNxzWoTqqxb-53-105" style="edgeStyle=orthogonalEdgeStyle;rounded=0;orthogonalLoop=1;jettySize=auto;html=1;" edge="1" parent="1" source="T1-t7WzNxzWoTqqxb-53-96" target="T1-t7WzNxzWoTqqxb-53-104">
          <mxGeometry relative="1" as="geometry" />
        </mxCell>
        <mxCell id="T1-t7WzNxzWoTqqxb-53-96" value="Is CELite" style="rhombus;whiteSpace=wrap;html=1;" vertex="1" parent="1">
          <mxGeometry x="60" y="407.5" width="140" height="80" as="geometry" />
        </mxCell>
        <mxCell id="T1-t7WzNxzWoTqqxb-53-98" value="Return result" style="rounded=1;whiteSpace=wrap;html=1;" vertex="1" parent="1">
          <mxGeometry x="420" y="656.5" width="110" height="30" as="geometry" />
        </mxCell>
        <mxCell id="T1-t7WzNxzWoTqqxb-53-102" style="edgeStyle=orthogonalEdgeStyle;rounded=0;orthogonalLoop=1;jettySize=auto;html=1;entryX=0.5;entryY=0;entryDx=0;entryDy=0;" edge="1" parent="1" source="T1-t7WzNxzWoTqqxb-53-99" target="T1-t7WzNxzWoTqqxb-53-101">
          <mxGeometry relative="1" as="geometry" />
        </mxCell>
        <mxCell id="T1-t7WzNxzWoTqqxb-53-99" value="WriteFile" style="rounded=1;whiteSpace=wrap;html=1;" vertex="1" parent="1">
          <mxGeometry x="265" y="620" width="110" height="25" as="geometry" />
        </mxCell>
        <mxCell id="T1-t7WzNxzWoTqqxb-53-103" style="edgeStyle=orthogonalEdgeStyle;rounded=0;orthogonalLoop=1;jettySize=auto;html=1;entryX=0;entryY=0.5;entryDx=0;entryDy=0;" edge="1" parent="1" source="T1-t7WzNxzWoTqqxb-53-101" target="T1-t7WzNxzWoTqqxb-53-98">
          <mxGeometry relative="1" as="geometry" />
        </mxCell>
        <mxCell id="T1-t7WzNxzWoTqqxb-53-101" value="OnModuleGetInfo" style="rounded=1;whiteSpace=wrap;html=1;" vertex="1" parent="1">
          <mxGeometry x="265" y="659" width="110" height="25" as="geometry" />
        </mxCell>
        <mxCell id="T1-t7WzNxzWoTqqxb-53-104" value="Is AC10" style="rhombus;whiteSpace=wrap;html=1;" vertex="1" parent="1">
          <mxGeometry x="60" y="550" width="140" height="80" as="geometry" />
        </mxCell>
      </root>
    </mxGraphModel>
  </diagram>
</mxfile>
